<svg width="33" height="32" viewBox="0 0 33 32" fill="none" xmlns="http://www.w3.org/2000/svg">
<g id="Frame 12">
<g id="Vector">
<path d="M19 21.6667V19H31V21.6667H19Z" fill="#358EE0"/>
<path d="M19 25.6667V23H31V25.6667H19Z" fill="#358EE0"/>
<path d="M19 29.6667V27H31V29.6667H19Z" fill="#358EE0"/>
</g>
<path id="Vector 1 (Stroke)" fill-rule="evenodd" clip-rule="evenodd" d="M11.0862 14.0896C11.339 13.9747 11.6283 13.9701 11.8846 14.0769L17.8846 16.5769C18.2457 16.7274 18.4859 17.0746 18.4994 17.4656C18.5129 17.8566 18.2971 18.2195 17.9472 18.3944L12.5 21.118V25.447L17.4138 23V25.4104L11.9138 27.9104C11.6277 28.0404 11.2971 28.0284 11.0211 27.8779L5.52115 24.8779C5.19989 24.7027 5 24.3659 5 24V17.5C5 17.1079 5.2292 16.7519 5.5862 16.5896L11.0862 14.0896ZM10.5 25.3155V21.0936L7 19.1845V23.4064L10.5 25.3155ZM8.23755 17.5814L11.5201 19.3719L15.0985 17.5827L11.5174 16.0906L8.23755 17.5814Z" fill="#1A3668"/>
<path id="Vector 2" d="M12 13V8M12 8L20.5 12.5M12 8L16 5.86667M20.5 12.5V17M20.5 12.5L24.25 10.5M28 8.5V17.5M28 8.5L20.4392 4.49724C19.852 4.18633 19.1486 4.18741 18.5623 4.50011L16 5.86667M28 8.5L24.25 10.5M16 5.86667L24.25 10.5" stroke="#1A3668" stroke-width="2"/>
</g>
</svg>
