<svg width="32" height="32" viewBox="0 0 32 32" fill="none" xmlns="http://www.w3.org/2000/svg">
<g id="icon-list-sales">
<g id="Vector">
<path d="M8.00001 16H24V17.4533C24.44 17.3867 24.88 17.3333 25.3333 17.3333C25.7867 17.3333 26.2267 17.3867 26.6667 17.4533V16C26.6667 15.2928 26.3857 14.6145 25.8856 14.1144C25.3855 13.6143 24.7073 13.3333 24 13.3333H22.6667V5.33333H9.33334V13.3333H8.00001C7.29277 13.3333 6.61449 13.6143 6.11439 14.1144C5.61429 14.6145 5.33334 15.2928 5.33334 16V25.3333H17.3333C17.3333 24.4 17.5067 23.5067 17.8 22.6667H8.00001V16ZM12 8H20V13.3333H12V8ZM9.33334 20V17.3333H14.6667V20H9.33334Z" fill="#1A3668"/>
<path d="M19.3333 21.3333V18.6667H31.3333V21.3333H19.3333Z" fill="#358EE0"/>
<path d="M19.3333 25.3333V22.6667H31.3333V25.3333H19.3333Z" fill="#358EE0"/>
<path d="M19.3333 29.3333V26.6667H31.3333V29.3333H19.3333Z" fill="#358EE0"/>
</g>
</g>
</svg>
