<svg width="32" height="32" viewBox="0 0 32 32" fill="none" xmlns="http://www.w3.org/2000/svg">
<g id="icon-new-sale">
<g id="Vector">
<path d="M6.52635 14.1053H21.6842V15.4821C22.1011 15.4189 22.5179 15.3684 22.9474 15.3684C23.3769 15.3684 23.7937 15.4189 24.2106 15.4821V14.1053C24.2106 13.4352 23.9444 12.7927 23.4706 12.3189C22.9968 11.8451 22.3543 11.5789 21.6842 11.5789H20.4211V4H7.7895V11.5789H6.52635C5.85633 11.5789 5.21375 11.8451 4.73997 12.3189C4.2662 12.7927 4.00003 13.4352 4.00003 14.1053V22.9474H15.3685C15.3685 22.0632 15.5327 21.2168 15.8106 20.4211H6.52635V14.1053ZM10.3158 6.52632H17.8948V11.5789H10.3158V6.52632ZM7.7895 17.8947V15.3684H12.8421V17.8947H7.7895Z" fill="#1A3668"/>
<path d="M28 24.2105V21.6842H24.2106V17.8947H21.6842V21.6842H17.8948V24.2105H21.6842V28H24.2106V24.2105H28Z" fill="#358EE0"/>
</g>
</g>
</svg>
