<svg width="18" height="17" viewBox="0 0 18 17" fill="none" xmlns="http://www.w3.org/2000/svg">
<path id="icon-edit" d="M10.8217 3.33856L12.8955 1.26479C13.0651 1.09525 13.2951 1 13.5349 1C13.7747 1 14.0047 1.09525 14.1743 1.26479L16.513 3.60354C16.6826 3.77314 16.7778 4.00313 16.7778 4.24294C16.7778 4.48276 16.6826 4.71275 16.513 4.88235L14.4393 6.95611M10.8217 3.33856L2.04282 12.1175C1.8732 12.287 1.77788 12.517 1.77783 12.7569V15.0956C1.77783 15.3355 1.87312 15.5655 2.04272 15.7351C2.21233 15.9047 2.44236 16 2.68222 16H5.02097C5.26081 15.9999 5.49081 15.9046 5.66037 15.735L14.4393 6.95611M10.8217 3.33856L14.4393 6.95611" stroke="#09172F" stroke-width="2" stroke-linecap="round" stroke-linejoin="round"/>
</svg>
