<svg width="32" height="32" viewBox="0 0 32 32" fill="none" xmlns="http://www.w3.org/2000/svg">
<g id="list_clients">
<path id="Vector" d="M8 26L8 22C8 21.475 8 20.7349 8 20C8 18.8954 8.89542 18 9.99999 18C10.7349 18 11.475 18 12 18H15.5M10 10C10 11.0609 10.4214 12.0783 11.1716 12.8284C11.9217 13.5786 12.9391 14 14 14C15.0609 14 16.0783 13.5786 16.8284 12.8284C17.5786 12.0783 18 11.0609 18 10C18 8.93913 17.5786 7.92172 16.8284 7.17157C16.0783 6.42143 15.0609 6 14 6C12.9391 6 11.9217 6.42143 11.1716 7.17157C10.4214 7.92172 10 8.93913 10 10Z" stroke="#1A3668" stroke-width="2.5" stroke-linecap="square" stroke-linejoin="round"/>
<g id="Vector_2">
<path d="M19 19.6667V17H31V19.6667H19Z" fill="#358EE0"/>
<path d="M19 23.6667V21H31V23.6667H19Z" fill="#358EE0"/>
<path d="M19 27.6667V25H31V27.6667H19Z" fill="#358EE0"/>
</g>
</g>
</svg>
