<svg width="172" height="50" viewBox="0 0 172 50" fill="none" xmlns="http://www.w3.org/2000/svg">
<path d="M164.649 40.4424C163.969 40.4424 163.394 40.249 162.925 39.862C162.468 39.475 162.239 38.918 162.239 38.191C162.239 37.6399 162.52 37.1357 163.083 36.6783C163.646 36.2093 164.532 35.8575 165.739 35.623C165.927 35.5878 166.138 35.5526 166.373 35.5174C166.607 35.4705 166.853 35.4236 167.111 35.3767V33.9872C167.111 33.1898 167.012 32.6328 166.812 32.3162C166.625 31.9879 166.326 31.8237 165.915 31.8237C165.634 31.8237 165.411 31.9175 165.247 32.1051C165.083 32.281 164.977 32.5918 164.93 33.0374L164.895 33.2308C164.872 33.7351 164.748 34.1044 164.526 34.339C164.303 34.5735 164.027 34.6907 163.699 34.6907C163.394 34.6907 163.142 34.5969 162.943 34.4093C162.743 34.2217 162.644 33.9696 162.644 33.653C162.644 33.1722 162.808 32.7677 163.136 32.4393C163.476 32.111 163.922 31.8647 164.473 31.7006C165.024 31.5364 165.622 31.4543 166.267 31.4543C167.311 31.4543 168.114 31.7123 168.677 32.2282C169.251 32.7325 169.539 33.5592 169.539 34.7083V38.5956C169.539 39.1232 169.785 39.3871 170.277 39.3871H170.664L170.823 39.5278C170.6 39.8092 170.354 40.0262 170.084 40.1786C169.826 40.331 169.457 40.4073 168.976 40.4073C168.46 40.4073 168.049 40.29 167.745 40.0555C167.451 39.8092 167.258 39.4868 167.164 39.0881C166.812 39.4633 166.449 39.7858 166.074 40.0555C165.71 40.3135 165.235 40.4424 164.649 40.4424ZM165.722 39.3695C165.956 39.3695 166.173 39.3167 166.373 39.2112C166.584 39.0939 166.83 38.918 167.111 38.6835V35.7285C166.994 35.752 166.877 35.7754 166.76 35.7989C166.642 35.8223 166.507 35.8458 166.355 35.8692C165.816 36.0099 165.382 36.2503 165.053 36.5904C164.737 36.9187 164.578 37.3643 164.578 37.9272C164.578 38.4079 164.69 38.7715 164.913 39.0177C165.135 39.2522 165.405 39.3695 165.722 39.3695Z" fill="#061227"/>
<path d="M152.015 40.1786V40.0027L152.261 39.9324C152.672 39.8151 152.877 39.5278 152.877 39.0705V33.565C152.877 33.3071 152.836 33.1194 152.754 33.0022C152.672 32.8732 152.513 32.7852 152.279 32.7383L152.015 32.668V32.4921L155.023 31.4719L155.199 31.6478L155.339 32.7032C155.75 32.3396 156.213 32.0406 156.729 31.8061C157.245 31.5716 157.755 31.4543 158.259 31.4543C159.033 31.4543 159.625 31.6654 160.036 32.0875C160.458 32.5097 160.669 33.1546 160.669 34.0224V39.0881C160.669 39.5454 160.892 39.8327 161.337 39.9499L161.496 40.0027V40.1786H157.345V40.0027L157.573 39.9324C157.984 39.8034 158.189 39.5161 158.189 39.0705V33.4595C158.189 32.709 157.814 32.3338 157.063 32.3338C156.547 32.3338 155.984 32.5918 155.375 33.1077V39.0881C155.375 39.5454 155.58 39.8327 155.99 39.9499L156.148 40.0027V40.1786H152.015Z" fill="#061227"/>
<path d="M149.196 30.5397C148.797 30.5397 148.457 30.4166 148.176 30.1703C147.906 29.9123 147.771 29.5899 147.771 29.2029C147.771 28.8042 147.906 28.4817 148.176 28.2355C148.457 27.9892 148.797 27.8661 149.196 27.8661C149.595 27.8661 149.929 27.9892 150.199 28.2355C150.468 28.4817 150.603 28.8042 150.603 29.2029C150.603 29.5899 150.468 29.9123 150.199 30.1703C149.929 30.4166 149.595 30.5397 149.196 30.5397ZM147.12 40.1786V40.0027L147.367 39.9324C147.601 39.862 147.759 39.7565 147.842 39.6157C147.935 39.475 147.982 39.2874 147.982 39.0529V33.5474C147.982 33.3012 147.935 33.1194 147.842 33.0022C147.759 32.8732 147.601 32.7852 147.367 32.7383L147.12 32.6856V32.5097L150.339 31.4719L150.515 31.6478L150.462 34.1455V39.0705C150.462 39.305 150.503 39.4926 150.585 39.6333C150.679 39.7741 150.838 39.8796 151.06 39.9499L151.236 40.0027V40.1786H147.12Z" fill="#061227"/>
<path d="M140.289 40.4424C139.832 40.4424 139.41 40.3545 139.023 40.1786C138.647 40.0027 138.348 39.7213 138.126 39.3343C137.914 38.9356 137.815 38.4138 137.827 37.7689L137.879 33.2484C137.879 32.9787 137.832 32.7852 137.739 32.668C137.645 32.5507 137.498 32.4686 137.299 32.4217L137.088 32.3514V32.1755L140.236 31.5599L140.412 31.7357L140.324 34.2334V38.4724C140.324 38.8477 140.43 39.1232 140.641 39.2991C140.864 39.475 141.139 39.563 141.467 39.563C141.796 39.563 142.089 39.5161 142.347 39.4223C142.605 39.3285 142.863 39.1877 143.121 39.0001L143.191 33.266C143.191 32.9963 143.15 32.8087 143.068 32.7032C142.986 32.5859 142.834 32.5038 142.611 32.4569L142.435 32.4041V32.2282L145.513 31.5599L145.689 31.7357L145.636 34.2334V39.0001C145.636 39.2581 145.671 39.4574 145.742 39.5982C145.812 39.7389 145.964 39.8561 146.199 39.9499L146.375 40.0027V40.1786L143.297 40.3545L143.138 39.3167C142.752 39.6333 142.329 39.903 141.872 40.1258C141.426 40.3369 140.899 40.4424 140.289 40.4424Z" fill="#061227"/>
<path d="M132.347 44.2241V44.0482L132.717 43.9603C133.162 43.8313 133.385 43.5382 133.385 43.0808V39.5806C133.045 39.8385 132.652 40.0438 132.207 40.1962C131.773 40.3604 131.286 40.4424 130.747 40.4424C129.75 40.4424 128.923 40.0672 128.267 39.3167C127.61 38.5662 127.282 37.4757 127.282 36.0451C127.282 35.0601 127.446 34.2276 127.774 33.5474C128.103 32.8673 128.554 32.3514 129.129 31.9996C129.715 31.6361 130.389 31.4543 131.151 31.4543C131.667 31.4543 132.136 31.5305 132.559 31.683C132.992 31.8354 133.373 32.0289 133.702 32.2634L135.707 31.4543L135.883 31.6302L135.83 34.0048V43.1336C135.83 43.6144 136.041 43.9017 136.463 43.9955L136.622 44.0482V44.2241H132.347ZM131.908 39.7389C132.4 39.7389 132.875 39.5512 133.332 39.176V32.4921C133.133 32.3631 132.928 32.2693 132.717 32.2107C132.506 32.152 132.254 32.1227 131.96 32.1227C131.339 32.1227 130.846 32.4276 130.483 33.0374C130.119 33.6354 129.938 34.6263 129.938 36.0099C129.938 37.3585 130.114 38.32 130.465 38.8946C130.817 39.4574 131.298 39.7389 131.908 39.7389Z" fill="#061227"/>
<path d="M122.593 40.4424C122.019 40.4424 121.503 40.3721 121.046 40.2314C120.588 40.1024 120.166 39.9382 119.779 39.7389L119.797 37.6457H119.973L120.571 38.7011C120.829 39.1701 121.11 39.5219 121.415 39.7565C121.731 39.9793 122.13 40.0907 122.611 40.0907C123.174 40.0907 123.625 39.9675 123.965 39.7213C124.317 39.4633 124.493 39.1232 124.493 38.7011C124.493 38.3141 124.37 37.9975 124.124 37.7513C123.877 37.505 123.42 37.2822 122.752 37.0829L122.013 36.8542C121.298 36.6432 120.735 36.3148 120.324 35.8692C119.914 35.4236 119.709 34.8784 119.709 34.2334C119.709 33.4595 120.014 32.8028 120.623 32.2634C121.233 31.724 122.107 31.4543 123.244 31.4543C123.701 31.4543 124.129 31.5071 124.528 31.6126C124.939 31.7064 125.331 31.853 125.707 32.0524L125.601 33.952H125.425L124.81 32.8615C124.587 32.4745 124.364 32.2048 124.141 32.0524C123.93 31.8882 123.608 31.8061 123.174 31.8061C122.775 31.8061 122.4 31.9175 122.048 32.1403C121.696 32.3631 121.52 32.6797 121.52 33.0901C121.52 33.4888 121.667 33.8054 121.96 34.0399C122.265 34.2745 122.711 34.4914 123.297 34.6907L124.088 34.9194C124.933 35.1774 125.537 35.535 125.9 35.9924C126.264 36.4379 126.445 36.9774 126.445 37.6106C126.445 38.4666 126.105 39.1526 125.425 39.6685C124.757 40.1845 123.813 40.4424 122.593 40.4424Z" fill="#061227"/>
<path d="M115.05 31.4543C115.813 31.4543 116.463 31.6126 117.003 31.9292C117.542 32.2341 117.953 32.6563 118.234 33.1957C118.527 33.7233 118.674 34.3272 118.674 35.0074C118.674 35.1363 118.668 35.2712 118.656 35.4119C118.645 35.5409 118.621 35.6582 118.586 35.7637H113.344C113.356 37.0301 113.579 37.9448 114.013 38.5076C114.458 39.0588 115.115 39.3343 115.983 39.3343C116.569 39.3343 117.044 39.2405 117.407 39.0529C117.771 38.8653 118.111 38.5897 118.428 38.2262L118.603 38.3845C118.24 39.0294 117.753 39.5337 117.144 39.8972C116.546 40.2607 115.824 40.4424 114.98 40.4424C114.148 40.4424 113.409 40.2665 112.764 39.9148C112.119 39.5512 111.615 39.0353 111.251 38.3669C110.888 37.6985 110.706 36.9011 110.706 35.9748C110.706 35.0132 110.917 34.1982 111.339 33.5299C111.761 32.8497 112.301 32.3338 112.957 31.982C113.626 31.6302 114.323 31.4543 115.05 31.4543ZM114.998 31.8061C114.658 31.8061 114.364 31.9116 114.118 32.1227C113.884 32.3221 113.696 32.6856 113.555 33.2132C113.426 33.7292 113.356 34.4621 113.344 35.4119H116.352C116.469 34.1338 116.422 33.2132 116.211 32.6504C116 32.0875 115.596 31.8061 114.998 31.8061Z" fill="#061227"/>
<path d="M100.269 40.4424C99.5891 40.4424 99.0146 40.249 98.5455 39.862C98.0882 39.475 97.8595 38.918 97.8595 38.191C97.8595 37.6399 98.141 37.1357 98.7038 36.6783C99.2667 36.2093 100.152 35.8575 101.36 35.623C101.547 35.5878 101.758 35.5526 101.993 35.5174C102.228 35.4705 102.474 35.4236 102.732 35.3767V33.9872C102.732 33.1898 102.632 32.6328 102.433 32.3162C102.245 31.9879 101.946 31.8237 101.536 31.8237C101.254 31.8237 101.031 31.9175 100.867 32.1051C100.703 32.281 100.598 32.5918 100.551 33.0374L100.516 33.2308C100.492 33.7351 100.369 34.1044 100.146 34.339C99.9233 34.5735 99.6478 34.6907 99.3194 34.6907C99.0146 34.6907 98.7624 34.5969 98.5631 34.4093C98.3637 34.2217 98.2641 33.9696 98.2641 33.653C98.2641 33.1722 98.4282 32.7677 98.7566 32.4393C99.0966 32.111 99.5422 31.8647 100.093 31.7006C100.644 31.5364 101.243 31.4543 101.887 31.4543C102.931 31.4543 103.734 31.7123 104.297 32.2282C104.872 32.7325 105.159 33.5592 105.159 34.7083V38.5956C105.159 39.1232 105.405 39.3871 105.898 39.3871H106.285L106.443 39.5278C106.22 39.8092 105.974 40.0262 105.704 40.1786C105.446 40.331 105.077 40.4073 104.596 40.4073C104.08 40.4073 103.67 40.29 103.365 40.0555C103.072 39.8092 102.878 39.4868 102.785 39.0881C102.433 39.4633 102.069 39.7858 101.694 40.0555C101.33 40.3135 100.856 40.4424 100.269 40.4424ZM101.342 39.3695C101.577 39.3695 101.794 39.3167 101.993 39.2112C102.204 39.0939 102.45 38.918 102.732 38.6835V35.7285C102.614 35.752 102.497 35.7754 102.38 35.7989C102.263 35.8223 102.128 35.8458 101.975 35.8692C101.436 36.0099 101.002 36.2503 100.674 36.5904C100.357 36.9187 100.199 37.3643 100.199 37.9272C100.199 38.4079 100.31 38.7715 100.533 39.0177C100.756 39.2522 101.026 39.3695 101.342 39.3695Z" fill="#061227"/>
<path d="M92.8929 40.1786V40.0027L93.104 39.9324C93.5261 39.7916 93.7372 39.4985 93.7372 39.0529V29.6426C93.7372 29.4081 93.6903 29.2322 93.5965 29.1149C93.5027 28.986 93.3385 28.8921 93.104 28.8335L92.8753 28.7807V28.6049L96.0941 27.8485L96.3052 28.0068L96.2349 30.4693V36.4849C96.2349 36.9187 96.2349 37.3526 96.2349 37.7865C96.2466 38.2086 96.2524 38.6307 96.2524 39.0529C96.2524 39.2874 96.2993 39.4809 96.3932 39.6333C96.487 39.7741 96.6453 39.8796 96.8681 39.9499L97.0967 40.0027V40.1786H92.8929Z" fill="#061227"/>
<path d="M84.5097 31.4543C85.2719 31.4543 85.9227 31.6126 86.4621 31.9292C87.0015 32.2341 87.4119 32.6563 87.6933 33.1957C87.9865 33.7233 88.1331 34.3272 88.1331 35.0074C88.1331 35.1363 88.1272 35.2712 88.1155 35.4119C88.1037 35.5409 88.0803 35.6582 88.0451 35.7637H82.8035C82.8152 37.0301 83.038 37.9448 83.4719 38.5076C83.9175 39.0588 84.5742 39.3343 85.4419 39.3343C86.0282 39.3343 86.5031 39.2405 86.8666 39.0529C87.2301 38.8653 87.5702 38.5897 87.8868 38.2262L88.0627 38.3845C87.6992 39.0294 87.2126 39.5337 86.6028 39.8972C86.0048 40.2607 85.2836 40.4424 84.4393 40.4424C83.6068 40.4424 82.868 40.2665 82.2231 39.9148C81.5781 39.5512 81.0739 39.0353 80.7104 38.3669C80.3469 37.6985 80.1651 36.9011 80.1651 35.9748C80.1651 35.0132 80.3762 34.1982 80.7983 33.5299C81.2205 32.8497 81.7599 32.3338 82.4165 31.982C83.0849 31.6302 83.7826 31.4543 84.5097 31.4543ZM84.4569 31.8061C84.1168 31.8061 83.8237 31.9116 83.5774 32.1227C83.3429 32.3221 83.1553 32.6856 83.0146 33.2132C82.8856 33.7292 82.8152 34.4621 82.8035 35.4119H85.8113C85.9285 34.1338 85.8816 33.2132 85.6706 32.6504C85.4595 32.0875 85.0549 31.8061 84.4569 31.8061Z" fill="#061227"/>
<path d="M73.7236 40.4424C73.0317 40.4424 72.4103 40.29 71.8591 39.9851C71.308 39.6685 70.8683 39.1877 70.5399 38.5428C70.2233 37.8861 70.065 37.0477 70.065 36.0275C70.065 34.9956 70.2468 34.1455 70.6103 33.4771C70.9738 32.797 71.4546 32.2927 72.0526 31.9644C72.6506 31.6244 73.3014 31.4543 74.005 31.4543C74.4154 31.4543 74.8083 31.4954 75.1835 31.5774C75.5587 31.6595 75.8929 31.7827 76.1861 31.9468V29.6602C76.1861 29.414 76.145 29.2322 76.063 29.1149C75.9926 28.9977 75.8343 28.9156 75.5881 28.8687L75.2539 28.7983V28.6224L78.4551 27.8485L78.6486 28.0068L78.5782 30.4693V39.0705C78.5782 39.305 78.6193 39.4985 78.7014 39.6509C78.7834 39.7916 78.9359 39.8913 79.1587 39.9499L79.317 40.0027V40.1786L76.3092 40.3721L76.1509 39.7389C75.8343 39.9499 75.4708 40.12 75.0604 40.249C74.6617 40.378 74.2161 40.4424 73.7236 40.4424ZM74.7438 39.7916C75.2363 39.7916 75.6877 39.6451 76.0981 39.3519V32.369C75.6643 32.0875 75.2187 31.9468 74.7614 31.9468C74.1985 31.9468 73.7177 32.2752 73.319 32.9318C72.9203 33.5768 72.721 34.5969 72.721 35.9924C72.721 37.3878 72.9086 38.3728 73.2839 38.9474C73.6591 39.5102 74.1457 39.7916 74.7438 39.7916Z" fill="#061227"/>
<path d="M163.581 22.6429C162.752 22.6429 162.052 22.4072 161.481 21.9357C160.924 21.4643 160.645 20.7857 160.645 19.9C160.645 19.2286 160.988 18.6143 161.674 18.0572C162.359 17.4857 163.438 17.0572 164.909 16.7715C165.138 16.7286 165.395 16.6857 165.681 16.6429C165.967 16.5857 166.267 16.5286 166.581 16.4715V14.7786C166.581 13.8072 166.459 13.1286 166.217 12.7429C165.988 12.3429 165.624 12.1429 165.124 12.1429C164.781 12.1429 164.509 12.2572 164.309 12.4857C164.109 12.7 163.981 13.0786 163.924 13.6215L163.881 13.8572C163.852 14.4715 163.702 14.9215 163.431 15.2072C163.159 15.4929 162.824 15.6357 162.424 15.6357C162.052 15.6357 161.745 15.5215 161.502 15.2929C161.259 15.0643 161.138 14.7572 161.138 14.3715C161.138 13.7857 161.338 13.2929 161.738 12.8929C162.152 12.4929 162.695 12.1929 163.367 11.9929C164.038 11.7929 164.767 11.6929 165.552 11.6929C166.824 11.6929 167.802 12.0072 168.488 12.6357C169.188 13.25 169.538 14.2572 169.538 15.6572V20.3929C169.538 21.0357 169.838 21.3572 170.438 21.3572H170.909L171.102 21.5286C170.831 21.8715 170.531 22.1357 170.202 22.3215C169.888 22.5072 169.438 22.6 168.852 22.6C168.224 22.6 167.724 22.4572 167.352 22.1715C166.995 21.8715 166.759 21.4786 166.645 20.9929C166.217 21.45 165.774 21.8429 165.317 22.1715C164.874 22.4857 164.295 22.6429 163.581 22.6429ZM164.888 21.3357C165.174 21.3357 165.438 21.2715 165.681 21.1429C165.938 21 166.238 20.7857 166.581 20.5V16.9C166.438 16.9286 166.295 16.9572 166.152 16.9857C166.009 17.0143 165.845 17.0429 165.659 17.0715C165.002 17.2429 164.474 17.5357 164.074 17.95C163.688 18.35 163.495 18.8929 163.495 19.5786C163.495 20.1643 163.631 20.6072 163.902 20.9072C164.174 21.1929 164.502 21.3357 164.888 21.3357Z" fill="#061227"/>
<path d="M156.781 22.6429C155.867 22.6429 155.152 22.4143 154.638 21.9572C154.138 21.5 153.888 20.7715 153.888 19.7715V12.4429H152.41V12.2286L152.924 12.1429C153.367 12.0429 153.745 11.9 154.06 11.7143C154.388 11.5286 154.71 11.2786 155.024 10.9643L156.781 9.01432H156.995L156.931 12.0143H159.331V12.4429H156.91V20.1572C156.91 20.6572 157.017 21.0357 157.231 21.2929C157.46 21.55 157.745 21.6786 158.088 21.6786C158.388 21.6786 158.652 21.6072 158.881 21.4643C159.11 21.3072 159.338 21.1 159.567 20.8429L159.781 21.0572C159.495 21.5429 159.102 21.9286 158.602 22.2143C158.102 22.5 157.495 22.6429 156.781 22.6429Z" fill="#061227"/>
<path d="M149.275 10.5786C148.789 10.5786 148.375 10.4286 148.032 10.1286C147.704 9.81432 147.539 9.42146 147.539 8.95003C147.539 8.46432 147.704 8.07146 148.032 7.77146C148.375 7.47146 148.789 7.32146 149.275 7.32146C149.761 7.32146 150.168 7.47146 150.497 7.77146C150.825 8.07146 150.989 8.46432 150.989 8.95003C150.989 9.42146 150.825 9.81432 150.497 10.1286C150.168 10.4286 149.761 10.5786 149.275 10.5786ZM146.747 22.3215V22.1072L147.047 22.0215C147.332 21.9357 147.525 21.8072 147.625 21.6357C147.739 21.4643 147.797 21.2357 147.797 20.95V14.2429C147.797 13.9429 147.739 13.7215 147.625 13.5786C147.525 13.4215 147.332 13.3143 147.047 13.2572L146.747 13.1929V12.9786L150.668 11.7143L150.882 11.9286L150.818 14.9715V20.9715C150.818 21.2572 150.868 21.4857 150.968 21.6572C151.082 21.8286 151.275 21.9572 151.547 22.0429L151.761 22.1072V22.3215H146.747Z" fill="#061227"/>
<path d="M138.942 22.6429C138.099 22.6429 137.342 22.4572 136.67 22.0857C135.999 21.7 135.463 21.1143 135.063 20.3286C134.678 19.5286 134.485 18.5072 134.485 17.2643C134.485 16.0072 134.706 14.9715 135.149 14.1572C135.592 13.3286 136.178 12.7143 136.906 12.3143C137.635 11.9 138.428 11.6929 139.285 11.6929C139.785 11.6929 140.263 11.7429 140.72 11.8429C141.178 11.9429 141.585 12.0929 141.942 12.2929V9.50718C141.942 9.20718 141.892 8.98575 141.792 8.84289C141.706 8.70003 141.513 8.60003 141.213 8.54289L140.806 8.45718V8.24289L144.706 7.30003L144.942 7.49289L144.856 10.4929V20.9715C144.856 21.2572 144.906 21.4929 145.006 21.6786C145.106 21.85 145.292 21.9715 145.563 22.0429L145.756 22.1072V22.3215L142.092 22.5572L141.899 21.7857C141.513 22.0429 141.07 22.25 140.57 22.4072C140.085 22.5643 139.542 22.6429 138.942 22.6429ZM140.185 21.85C140.785 21.85 141.335 21.6715 141.835 21.3143V12.8072C141.306 12.4643 140.763 12.2929 140.206 12.2929C139.52 12.2929 138.935 12.6929 138.449 13.4929C137.963 14.2786 137.72 15.5215 137.72 17.2215C137.72 18.9215 137.949 20.1215 138.406 20.8215C138.863 21.5072 139.456 21.85 140.185 21.85Z" fill="#061227"/>
<path d="M122.011 22.3215V22.1072L122.311 22.0215C122.811 21.8786 123.061 21.5286 123.061 20.9715V14.2643C123.061 13.95 123.011 13.7215 122.911 13.5786C122.811 13.4215 122.618 13.3143 122.332 13.2572L122.011 13.1715V12.9572L125.675 11.7143L125.889 11.9286L126.061 13.2143C126.561 12.7715 127.125 12.4072 127.753 12.1215C128.382 11.8357 129.003 11.6929 129.618 11.6929C130.561 11.6929 131.282 11.95 131.782 12.4643C132.296 12.9786 132.553 13.7643 132.553 14.8215V20.9929C132.553 21.55 132.825 21.9 133.368 22.0429L133.561 22.1072V22.3215H128.503V22.1072L128.782 22.0215C129.282 21.8643 129.532 21.5143 129.532 20.9715V14.1357C129.532 13.2215 129.075 12.7643 128.161 12.7643C127.532 12.7643 126.846 13.0786 126.103 13.7072V20.9929C126.103 21.55 126.353 21.9 126.853 22.0429L127.046 22.1072V22.3215H122.011Z" fill="#061227"/>
<path d="M116.528 11.6929C117.457 11.6929 118.25 11.8857 118.907 12.2715C119.564 12.6429 120.064 13.1572 120.407 13.8143C120.764 14.4572 120.943 15.1929 120.943 16.0215C120.943 16.1786 120.936 16.3429 120.921 16.5143C120.907 16.6715 120.878 16.8143 120.836 16.9429H114.45C114.464 18.4857 114.736 19.6 115.264 20.2857C115.807 20.9572 116.607 21.2929 117.664 21.2929C118.378 21.2929 118.957 21.1786 119.4 20.95C119.843 20.7215 120.257 20.3857 120.643 19.9429L120.857 20.1357C120.414 20.9215 119.821 21.5357 119.078 21.9786C118.35 22.4215 117.471 22.6429 116.443 22.6429C115.428 22.6429 114.528 22.4286 113.743 22C112.957 21.5572 112.343 20.9286 111.9 20.1143C111.457 19.3 111.236 18.3286 111.236 17.2C111.236 16.0286 111.493 15.0357 112.007 14.2215C112.521 13.3929 113.178 12.7643 113.978 12.3357C114.793 11.9072 115.643 11.6929 116.528 11.6929ZM116.464 12.1215C116.05 12.1215 115.693 12.25 115.393 12.5072C115.107 12.75 114.878 13.1929 114.707 13.8357C114.55 14.4643 114.464 15.3572 114.45 16.5143H118.114C118.257 14.9572 118.2 13.8357 117.943 13.15C117.686 12.4643 117.193 12.1215 116.464 12.1215Z" fill="#061227"/>
<path d="M107.715 10.5786C107.23 10.5786 106.815 10.4286 106.473 10.1286C106.144 9.81432 105.98 9.42146 105.98 8.95003C105.98 8.46432 106.144 8.07146 106.473 7.77146C106.815 7.47146 107.23 7.32146 107.715 7.32146C108.201 7.32146 108.608 7.47146 108.937 7.77146C109.265 8.07146 109.43 8.46432 109.43 8.95003C109.43 9.42146 109.265 9.81432 108.937 10.1286C108.608 10.4286 108.201 10.5786 107.715 10.5786ZM105.187 22.3215V22.1072L105.487 22.0215C105.773 21.9357 105.965 21.8072 106.065 21.6357C106.18 21.4643 106.237 21.2357 106.237 20.95V14.2429C106.237 13.9429 106.18 13.7215 106.065 13.5786C105.965 13.4215 105.773 13.3143 105.487 13.2572L105.187 13.1929V12.9786L109.108 11.7143L109.323 11.9286L109.258 14.9715V20.9715C109.258 21.2572 109.308 21.4857 109.408 21.6572C109.523 21.8286 109.715 21.9572 109.987 22.0429L110.201 22.1072V22.3215H105.187Z" fill="#061227"/>
<path d="M101.473 22.6429C100.558 22.6429 99.8441 22.4143 99.3298 21.9572C98.8298 21.5 98.5798 20.7715 98.5798 19.7715V12.4429H97.1012V12.2286L97.6155 12.1429C98.0584 12.0429 98.437 11.9 98.7512 11.7143C99.0798 11.5286 99.4012 11.2786 99.7155 10.9643L101.473 9.01432H101.687L101.623 12.0143H104.023V12.4429H101.601V20.1572C101.601 20.6572 101.708 21.0357 101.923 21.2929C102.151 21.55 102.437 21.6786 102.78 21.6786C103.08 21.6786 103.344 21.6072 103.573 21.4643C103.801 21.3072 104.03 21.1 104.258 20.8429L104.473 21.0572C104.187 21.5429 103.794 21.9286 103.294 22.2143C102.794 22.5 102.187 22.6429 101.473 22.6429Z" fill="#061227"/>
<path d="M84.7723 22.6429C83.9437 22.6429 83.2437 22.4072 82.6723 21.9357C82.1151 21.4643 81.8366 20.7857 81.8366 19.9C81.8366 19.2286 82.1794 18.6143 82.8651 18.0572C83.5509 17.4857 84.6294 17.0572 86.1009 16.7715C86.3294 16.7286 86.5866 16.6857 86.8723 16.6429C87.158 16.5857 87.458 16.5286 87.7723 16.4715V14.7786C87.7723 13.8072 87.6509 13.1286 87.408 12.7429C87.1794 12.3429 86.8151 12.1429 86.3151 12.1429C85.9723 12.1429 85.7009 12.2572 85.5009 12.4857C85.3009 12.7 85.1723 13.0786 85.1151 13.6215L85.0723 13.8572C85.0437 14.4715 84.8937 14.9215 84.6223 15.2072C84.3509 15.4929 84.0151 15.6357 83.6151 15.6357C83.2437 15.6357 82.9366 15.5215 82.6937 15.2929C82.4509 15.0643 82.3294 14.7572 82.3294 14.3715C82.3294 13.7857 82.5294 13.2929 82.9294 12.8929C83.3437 12.4929 83.8866 12.1929 84.558 11.9929C85.2294 11.7929 85.958 11.6929 86.7437 11.6929C88.0151 11.6929 88.9937 12.0072 89.6794 12.6357C90.3794 13.25 90.7294 14.2572 90.7294 15.6572V20.3929C90.7294 21.0357 91.0294 21.3572 91.6294 21.3572H92.1009L92.2937 21.5286C92.0223 21.8715 91.7223 22.1357 91.3937 22.3215C91.0794 22.5072 90.6294 22.6 90.0437 22.6C89.4151 22.6 88.9151 22.4572 88.5437 22.1715C88.1866 21.8715 87.9509 21.4786 87.8366 20.9929C87.408 21.45 86.9651 21.8429 86.508 22.1715C86.0651 22.4857 85.4866 22.6429 84.7723 22.6429ZM86.0794 21.3357C86.3651 21.3357 86.6294 21.2715 86.8723 21.1429C87.1294 21 87.4294 20.7857 87.7723 20.5V16.9C87.6294 16.9286 87.4866 16.9572 87.3437 16.9857C87.2009 17.0143 87.0366 17.0429 86.8509 17.0715C86.1937 17.2429 85.6651 17.5357 85.2651 17.95C84.8794 18.35 84.6866 18.8929 84.6866 19.5786C84.6866 20.1643 84.8223 20.6072 85.0937 20.9072C85.3651 21.1929 85.6937 21.3357 86.0794 21.3357Z" fill="#061227"/>
<path d="M70.1143 22.3215V22.1072L70.5643 21.9357C70.8643 21.8215 71.05 21.6857 71.1214 21.5286C71.2072 21.3572 71.25 21.1286 71.25 20.8429V9.65718C71.25 9.37146 71.2072 9.14289 71.1214 8.97146C71.0357 8.80003 70.85 8.66432 70.5643 8.56432L70.1143 8.39289V8.17861H75.5786V8.39289L75.1929 8.56432C74.9214 8.66432 74.7357 8.80718 74.6357 8.99289C74.5357 9.16432 74.4857 9.39289 74.4857 9.67861V21.8929H77.7857C78.3143 21.8929 78.7 21.7643 78.9429 21.5072C79.2 21.25 79.4429 20.8786 79.6714 20.3929L80.5072 18.5929H80.7214L80.5286 22.3215H70.1143Z" fill="#061227"/>
<path d="M0 9.82143L10 0V50L0 40.1786V9.82143Z" fill="#061227"/>
<path fill-rule="evenodd" clip-rule="evenodd" d="M60 0H10V50H26.7857V26.3393C26.7857 26.0927 26.9856 25.8929 27.2322 25.8929H39.7322C39.9787 25.8929 40.1786 26.0927 40.1786 26.3393V50H60V0Z" fill="#0E2246"/>
</svg>
